<svg width="168" height="24" viewBox="0 0 168 24" fill="none" xmlns="http://www.w3.org/2000/svg">
<path d="M13.7443 6.63636C13.6236 5.42187 13.0874 4.45597 12.1357 3.73864C11.1839 3.02131 9.98722 2.66264 8.54545 2.66264C7.52983 2.66264 6.63494 2.83665 5.8608 3.18466C5.09375 3.53267 4.49006 4.01562 4.04972 4.63352C3.61648 5.24432 3.39986 5.94034 3.39986 6.72159C3.39986 7.29688 3.52415 7.80114 3.77273 8.23438C4.02131 8.66761 4.35511 9.04048 4.77415 9.35298C5.20028 9.65838 5.66903 9.92116 6.1804 10.1413C6.69886 10.3615 7.22088 10.5462 7.74645 10.6953L10.0476 11.3558C10.7436 11.5476 11.4396 11.7926 12.1357 12.0909C12.8317 12.3892 13.4673 12.7656 14.0426 13.2202C14.625 13.6676 15.0902 14.218 15.4382 14.8714C15.7933 15.5178 15.9709 16.2955 15.9709 17.2045C15.9709 18.3693 15.669 19.4169 15.0653 20.3473C14.4616 21.2777 13.5952 22.0163 12.4659 22.5632C11.3366 23.103 9.98367 23.3729 8.40696 23.3729C6.92259 23.3729 5.63352 23.1278 4.53977 22.6378C3.44602 22.1406 2.58665 21.4553 1.96165 20.5817C1.33665 19.7081 0.985085 18.696 0.90696 17.5455H2.95241C3.02344 18.4048 3.30753 19.1328 3.80469 19.7294C4.30185 20.326 4.94815 20.7805 5.74361 21.093C6.53906 21.3984 7.42685 21.5511 8.40696 21.5511C9.49361 21.5511 10.4595 21.37 11.3047 21.0078C12.157 20.6385 12.8246 20.1271 13.3075 19.4737C13.7976 18.8132 14.0426 18.0462 14.0426 17.1726C14.0426 16.4339 13.8509 15.8161 13.4673 15.3189C13.0838 14.8146 12.5476 14.392 11.8587 14.0511C11.1768 13.7102 10.3849 13.4084 9.48296 13.1456L6.87287 12.3786C5.16122 11.8672 3.8331 11.1605 2.88849 10.2585C1.94389 9.35653 1.47159 8.20597 1.47159 6.80682C1.47159 5.63494 1.78409 4.60511 2.40909 3.71733C3.04119 2.82244 3.89347 2.12642 4.96591 1.62926C6.04545 1.125 7.25639 0.872868 8.59872 0.872868C9.95526 0.872868 11.1555 1.12145 12.1996 1.61861C13.2436 2.11577 14.071 2.80114 14.6818 3.67471C15.2997 4.54119 15.63 5.52841 15.6726 6.63636H13.7443ZM26.9865 23.3409C25.4595 23.3409 24.1385 22.9858 23.0234 22.2756C21.9084 21.5582 21.0455 20.5675 20.4347 19.3033C19.831 18.032 19.5291 16.5689 19.5291 14.9141C19.5291 13.2663 19.831 11.8033 20.4347 10.5249C21.0455 9.23935 21.8871 8.23437 22.9595 7.50994C24.0391 6.77841 25.2855 6.41264 26.6989 6.41264C27.5866 6.41264 28.4425 6.57599 29.2663 6.9027C30.0902 7.2223 30.8288 7.71591 31.4822 8.38352C32.1428 9.04403 32.6648 9.87855 33.0483 10.8871C33.4318 11.8885 33.6236 13.0746 33.6236 14.4453V15.3828H20.8395V13.7102H31.6847C31.6847 12.6591 31.4716 11.7145 31.0455 10.8764C30.6264 10.0312 30.0405 9.36364 29.2876 8.87358C28.5419 8.38352 27.679 8.13849 26.6989 8.13849C25.6619 8.13849 24.7493 8.41548 23.9609 8.96946C23.1726 9.52344 22.5547 10.255 22.1072 11.1641C21.6669 12.0732 21.4432 13.0675 21.4361 14.147V15.1484C21.4361 16.4482 21.6598 17.5845 22.1072 18.5575C22.5618 19.5234 23.2045 20.2727 24.0355 20.8054C24.8665 21.3381 25.8501 21.6044 26.9865 21.6044C27.7607 21.6044 28.4389 21.4837 29.0213 21.2422C29.6108 21.0007 30.1044 20.6776 30.5021 20.2727C30.907 19.8608 31.2124 19.4098 31.4183 18.9197L33.2188 19.5057C32.9702 20.1946 32.5618 20.8303 31.9936 21.4126C31.4325 21.995 30.7294 22.4638 29.8842 22.8189C29.0462 23.1669 28.0803 23.3409 26.9865 23.3409ZM44.4181 23.3409C42.8912 23.3409 41.5701 22.9858 40.4551 22.2756C39.34 21.5582 38.4771 20.5675 37.8663 19.3033C37.2626 18.032 36.9608 16.5689 36.9608 14.9141C36.9608 13.2663 37.2626 11.8033 37.8663 10.5249C38.4771 9.23935 39.3187 8.23437 40.3912 7.50994C41.4707 6.77841 42.7172 6.41264 44.1305 6.41264C45.0183 6.41264 45.8741 6.57599 46.698 6.9027C47.5218 7.2223 48.2605 7.71591 48.9139 8.38352C49.5744 9.04403 50.0964 9.87855 50.4799 10.8871C50.8635 11.8885 51.0552 13.0746 51.0552 14.4453V15.3828H38.2711V13.7102H49.1163C49.1163 12.6591 48.9032 11.7145 48.4771 10.8764C48.0581 10.0312 47.4721 9.36364 46.7193 8.87358C45.9735 8.38352 45.1106 8.13849 44.1305 8.13849C43.0936 8.13849 42.1809 8.41548 41.3926 8.96946C40.6042 9.52344 39.9863 10.255 39.5389 11.1641C39.0985 12.0732 38.8748 13.0675 38.8677 14.147V15.1484C38.8677 16.4482 39.0914 17.5845 39.5389 18.5575C39.9934 19.5234 40.6362 20.2727 41.4672 20.8054C42.2981 21.3381 43.2818 21.6044 44.4181 21.6044C45.1923 21.6044 45.8706 21.4837 46.4529 21.2422C47.0424 21.0007 47.536 20.6776 47.9338 20.2727C48.3386 19.8608 48.644 19.4098 48.85 18.9197L50.6504 19.5057C50.4018 20.1946 49.9934 20.8303 49.4252 21.4126C48.8642 21.995 48.161 22.4638 47.3159 22.8189C46.4778 23.1669 45.5119 23.3409 44.4181 23.3409ZM64.0657 1.18182H66.3668L74.2823 20.1875H74.4741L82.3896 1.18182H84.6907V23H82.8157V5.38991H82.6452L75.2837 23H73.4727L66.1112 5.38991H65.9407V23H64.0657V1.18182ZM96.4574 23.3409C95.044 23.3409 93.794 22.9822 92.7074 22.2649C91.6278 21.5476 90.7827 20.5568 90.1719 19.2926C89.5611 18.0213 89.2557 16.5547 89.2557 14.8928C89.2557 13.2166 89.5611 11.7429 90.1719 10.4716C90.7827 9.19318 91.6278 8.19886 92.7074 7.48864C93.794 6.77131 95.044 6.41264 96.4574 6.41264C97.8707 6.41264 99.1172 6.77131 100.197 7.48864C101.276 8.20597 102.121 9.20028 102.732 10.4716C103.35 11.7429 103.659 13.2166 103.659 14.8928C103.659 16.5547 103.354 18.0213 102.743 19.2926C102.132 20.5568 101.283 21.5476 100.197 22.2649C99.1172 22.9822 97.8707 23.3409 96.4574 23.3409ZM96.4574 21.6044C97.5938 21.6044 98.5561 21.299 99.3445 20.6882C100.133 20.0774 100.729 19.2642 101.134 18.2486C101.546 17.233 101.752 16.1143 101.752 14.8928C101.752 13.6712 101.546 12.549 101.134 11.5263C100.729 10.5036 100.133 9.68324 99.3445 9.06534C98.5561 8.44744 97.5938 8.13849 96.4574 8.13849C95.3281 8.13849 94.3658 8.44744 93.5703 9.06534C92.782 9.68324 92.1818 10.5036 91.7699 11.5263C91.3651 12.549 91.1626 13.6712 91.1626 14.8928C91.1626 16.1143 91.3651 17.233 91.7699 18.2486C92.1818 19.2642 92.782 20.0774 93.5703 20.6882C94.3587 21.299 95.321 21.6044 96.4574 21.6044ZM107.822 23V6.63636H109.665V9.15057H109.803C110.13 8.3267 110.698 7.66264 111.508 7.15838C112.325 6.64702 113.248 6.39133 114.278 6.39133C114.434 6.39133 114.608 6.39489 114.8 6.40199C114.992 6.40909 115.151 6.41619 115.279 6.4233V8.35156C115.194 8.33736 115.045 8.31605 114.832 8.28764C114.619 8.25923 114.388 8.24503 114.139 8.24503C113.287 8.24503 112.527 8.42614 111.86 8.78835C111.199 9.14347 110.677 9.63707 110.294 10.2692C109.91 10.9013 109.718 11.6222 109.718 12.4318V23H107.822ZM124.633 23.3409C123.106 23.3409 121.785 22.9858 120.67 22.2756C119.555 21.5582 118.692 20.5675 118.081 19.3033C117.477 18.032 117.176 16.5689 117.176 14.9141C117.176 13.2663 117.477 11.8033 118.081 10.5249C118.692 9.23935 119.534 8.23437 120.606 7.50994C121.686 6.77841 122.932 6.41264 124.345 6.41264C125.233 6.41264 126.089 6.57599 126.913 6.9027C127.737 7.2223 128.475 7.71591 129.129 8.38352C129.789 9.04403 130.311 9.87855 130.695 10.8871C131.078 11.8885 131.27 13.0746 131.27 14.4453V15.3828H118.486V13.7102H129.331C129.331 12.6591 129.118 11.7145 128.692 10.8764C128.273 10.0312 127.687 9.36364 126.934 8.87358C126.188 8.38352 125.325 8.13849 124.345 8.13849C123.308 8.13849 122.396 8.41548 121.607 8.96946C120.819 9.52344 120.201 10.255 119.754 11.1641C119.313 12.0732 119.09 13.0675 119.083 14.147V15.1484C119.083 16.4482 119.306 17.5845 119.754 18.5575C120.208 19.5234 120.851 20.2727 121.682 20.8054C122.513 21.3381 123.497 21.6044 124.633 21.6044C125.407 21.6044 126.085 21.4837 126.668 21.2422C127.257 21.0007 127.751 20.6776 128.149 20.2727C128.553 19.8608 128.859 19.4098 129.065 18.9197L130.865 19.5057C130.617 20.1946 130.208 20.8303 129.64 21.4126C129.079 21.995 128.376 22.4638 127.531 22.8189C126.693 23.1669 125.727 23.3409 124.633 23.3409ZM157.512 23L156.255 21.7536L163.67 14.3494H145.133V12.5597H163.67L156.255 5.15554L157.512 3.90909L167.058 13.4545L157.512 23Z" fill="white"/>
</svg>
